<svg width="564" height="563" xmlns="http://www.w3.org/2000/svg" xmlns:xlink="http://www.w3.org/1999/xlink" xml:space="preserve" overflow="hidden"><g transform="translate(-693 -124)"><path d="M281.377 58.6458C158.363 58.6426 58.6373 158.363 58.6341 281.377 58.6309 404.391 158.351 504.116 281.365 504.12 404.379 504.123 504.105 404.403 504.108 281.389 504.108 281.381 504.108 281.373 504.108 281.365 504.157 158.409 404.52 58.6945 281.565 58.6458 281.502 58.6458 281.44 58.6458 281.377 58.6458ZM304.425 401.583C301.944 407.383 297.323 412.005 291.523 414.485 288.539 415.754 285.328 416.401 282.086 416.385 275.614 416.398 269.401 413.839 264.815 409.272 262.603 407.055 260.834 404.439 259.602 401.56 258.326 398.574 257.677 395.359 257.696 392.112 257.68 385.636 260.241 379.42 264.815 374.835 274.298 365.327 289.693 365.307 299.201 374.79 299.216 374.805 299.231 374.82 299.246 374.835L299.246 374.835C301.471 377.068 303.241 379.711 304.46 382.617 305.73 385.621 306.379 388.851 306.366 392.112 306.373 395.365 305.713 398.585 304.425 401.571ZM325.133 298.601C309.113 308.261 299.219 325.511 298.971 344.216L263.783 344.216C263.992 313.405 280.108 284.889 306.395 268.815 328.432 255.001 335.098 225.938 321.284 203.902 307.47 181.865 278.407 175.199 256.37 189.013 242.625 197.629 234.282 212.713 234.29 228.936L199.103 228.936C199.086 183.493 235.909 146.642 281.352 146.625 326.793 146.608 363.646 183.431 363.663 228.874 363.673 257.195 349.118 283.53 325.133 298.589Z" fill="#27AE60" transform="matrix(1.00178 0 0 1 693 124)"/></g></svg>